{"title":"Red Line 2013 DVDRip x264 AAC-BadMeetsEvil [PublicHash]","uid":8670440,"size":1090449430,"categoryP":"video","categoryS":"movies","magnet":"?xt=urn:btih:6bdc616535fa5ddb0260a88ee136861575ed9e2b&amp;dn=Red+Line+2013+DVDRip+x264+AAC-BadMeetsEvil+%5BPublicHash%5D&amp;tr=udp%3A%2F%2Ftracker.openbittorrent.com%3A80&amp;tr=udp%3A%2F%2Fopen.demonii.com%3A1337&amp;tr=udp%3A%2F%2Ftracker.coppersurfer.tk%3A6969&amp;tr=udp%3A%2F%2Fexodus.desync.com%3A6969","seeders":1,"leechers":1,"uploader":"R0thschild","files":4,"time":1373487223,"description":"              ***********************************************\n\n                PublicHash - Largest Bittorrent Community\n      \n                         &lt;a href=&quot; http://publichash.com/&quot; rel=&quot;nofollow&quot; target=&quot;_NEW&quot;&gt; http://publichash.com/&lt;/a&gt;\n\n          Crystal Clean files - Fast Speed! No Virus! No Fake! Enjoy!\n    \n              ***********************************************\nSource: NTSC.DVDR-Mr Tumble - Thanks bro\n &lt;a href=&quot;\nhttp://www.imdb.com/title/tt1930458/&quot; rel=&quot;nofollow&quot; target=&quot;_NEW&quot;&gt;\nhttp://www.imdb.com/title/tt1930458/&lt;/a&gt;\n\nTerrified commuters are on the ride of their lives when terrorists send a subway train speeding out of control during rush hour. With the saboteur among them, a group of citizens are now trapped underground and in a race against time if they hope to see daylight again. Full of fast-paced action and suspense, Redline is a thriller that will have you holding on for safety\n\nGeneral\nComplete name: Red Line 2013 DVDRip x264 AAC-BadMeetsEvil.mp4\nFormat: MPEG-4\nFormat profile: Base Media\nCodec ID: isom\nFile size: 1 023 MiB\nDuration: 1h 26mn\nOverall bit rate mode: Variable\nOverall bit rate: 1 646 Kbps\nEncoded date: UTC 2013-07-10 07:06:41\nTagged date: UTC 2013-07-10 07:06:41\n\nVideo\nID: 1\nFormat: AVC\nFormat/Info: Advanced Video Codec\nFormat profile: &lt;a class=&quot;__cf_email__&quot; href=&quot;/cdn-cgi/l/email-protection&quot; data-cfemail=&quot;6a22030d022a265e445b&quot;&gt;[email&amp;#160;protected]&lt;/a&gt;&lt;script cf-hash='f9e31' type=&quot;text/javascript&quot;&gt;\n/* &lt;![CDATA[ */!function(){try{var t=&quot;currentScript&quot;in document?document.currentScript:function(){for(var t=document.getElementsByTagName(&quot;script&quot;),e=t.length;e--;)if(t[e].getAttribute(&quot;cf-hash&quot;))return t[e]}();if(t&amp;&amp;t.previousSibling){var e,r,n,i,c=t.previousSibling,a=c.getAttribute(&quot;data-cfemail&quot;);if(a){for(e=&quot;&quot;,r=parseInt(a.substr(0,2),16),n=2;a.length-n;n+=2)i=parseInt(a.substr(n,2),16)^r,e+=String.fromCharCode(i);e=document.createTextNode(e),c.parentNode.replaceChild(e,c)}}}catch(u){}}();/* ]]&gt; */&lt;/script&gt;\nFormat settings, CABAC: Yes\nFormat settings, ReFrames: 3 frames\nCodec ID: avc1\nCodec ID/Info: Advanced Video Coding\nDuration: 1h 26mn\nBit rate mode: Variable\nBit rate: 1 309 Kbps\nMaximum bit rate: 40.0 Mbps\nWidth: 720 pixels\nHeight: 400 pixels\nDisplay aspect ratio: 16:9\nFrame rate mode: Constant\nFrame rate: 23.976 fps\nColor space: YUV\nChroma subsampling: 4:2:0\nBit depth: 8 bits\nScan type: Progressive\nBits/(Pixel*Frame): 0.190\nStream size: 814 MiB (79%)\nWriting library: x264 core 133 r2334 a3ac64b\n\nAudio\nID: 2\nFormat: AAC\nFormat/Info: Advanced Audio Codec\nFormat profile: LC\nCodec ID: 40\nDuration: 1h 26mn\nBit rate mode: Variable\nBit rate: 333 Kbps\nMaximum bit rate: 415 Kbps\nChannel(s): 6 channels\nChannel positions: Front: L C R, Side: L R, LFE\nSampling rate: 48.0 KHz\nCompression mode: Lossy\nStream size: 207 MiB (20%)\nLanguage: English\nEncoded date: UTC 2013-07-10 00:12:46\nTagged date: UTC 2013-07-10 07:08:26 \n","torrent":{"xt":"urn:btih:6bdc616535fa5ddb0260a88ee136861575ed9e2b","amp;dn":"Red+Line+2013+DVDRip+x264+AAC-BadMeetsEvil+%5BPublicHash%5D","amp;tr":["udp%3A%2F%2Ftracker.openbittorrent.com%3A80","udp%3A%2F%2Fopen.demonii.com%3A1337","udp%3A%2F%2Ftracker.coppersurfer.tk%3A6969","udp%3A%2F%2Fexodus.desync.com%3A6969"],"infoHash":"6bdc616535fa5ddb0260a88ee136861575ed9e2b","infoHashBuffer":{"type":"Buffer","data":[107,220,97,101,53,250,93,219,2,96,168,142,225,54,134,21,117,237,158,43]},"announce":[],"urlList":[]}}